<?xml version="1.0" encoding="utf-8"?>
<!-- Generator: Adobe Illustrator 16.0.0, SVG Export Plug-In . SVG Version: 6.00 Build 0)  -->
<!DOCTYPE svg PUBLIC "-//W3C//DTD SVG 1.1//EN" "http://www.w3.org/Graphics/SVG/1.1/DTD/svg11.dtd">
<svg version="1.1" xmlns="http://www.w3.org/2000/svg" xmlns:xlink="http://www.w3.org/1999/xlink" x="0px" y="0px" width="1920px"
	 height="528px" viewBox="0 0 1920 528" enable-background="new 0 0 1920 528" xml:space="preserve">
<g id="Layer_2">
	<g id="Layer_3">
		<g>
			
				<ellipse transform="matrix(-0.8064 -0.5914 0.5914 -0.8064 2604.323 1742.1653)" fill="#EB4924" fill-opacity="0.2" cx="1587.368" cy="444.734" rx="2.883" ry="2.744"/>
			
				<ellipse transform="matrix(-0.8062 -0.5916 0.5916 -0.8062 2592.103 1851.4198)" fill="#EB4924" fill-opacity="0.2" cx="1599.275" cy="501.178" rx="1.397" ry="1.329"/>
		</g>
		<g>
			
				<ellipse transform="matrix(-0.8765 0.4814 -0.4814 -0.8765 1366.5118 710.2295)" fill="#EB4924" fill-opacity="0.2" cx="592.158" cy="530.39" rx="5.245" ry="4.993"/>
			
				<ellipse transform="matrix(-0.8766 0.4813 -0.4813 -0.8766 1045.2118 764.7181)" fill="#EB4924" fill-opacity="0.2" cx="424.54" cy="516.395" rx="1.359" ry="1.294"/>
			
				<ellipse transform="matrix(-0.8764 0.4815 -0.4815 -0.8764 1152.6765 757.4227)" fill="#EB4924" fill-opacity="0.2" cx="479.161" cy="526.6" rx="2.804" ry="2.672"/>
			<path fill="#EB4924" fill-opacity="0.2" d="M499.569,497.942c-1.328-2.415-0.345-5.506,2.195-6.902
				c2.537-1.395,5.673-0.564,6.999,1.854c1.329,2.416,0.347,5.507-2.191,6.9C504.033,501.188,500.897,500.36,499.569,497.942z"/>
		</g>
		<g opacity="0.3">
			
				<line fill="none" stroke="#EB4924" stroke-width="10" stroke-miterlimit="10" x1="16.727" y1="503.138" x2="145.677" y2="677.173"/>
			
				<line fill="none" stroke="#EB4924" stroke-width="10" stroke-miterlimit="10" x1="-14.434" y1="480.794" x2="29.188" y2="736.32"/>
			
				<line fill="none" stroke="#EB4924" stroke-width="10" stroke-miterlimit="10" x1="1595.173" y1="519.875" x2="1592.205" y2="736.457"/>
		</g>
	</g>
</g>
<g id="Layer_6">
	<g>
		
			<ellipse transform="matrix(0.6957 0.7183 -0.7183 0.6957 302.6025 88.0443)" fill="#EB4924" fill-opacity="0.2" cx="47.373" cy="401.216" rx="2.805" ry="2.67"/>
		
			<ellipse transform="matrix(0.6959 0.7182 -0.7182 0.6959 346.5493 98.5859)" fill="#EB4924" fill-opacity="0.2" cx="56.874" cy="458.466" rx="2.805" ry="2.669"/>
		
			<ellipse transform="matrix(0.696 0.7181 -0.7181 0.696 329.6471 66.3277)" fill="#EB4924" fill-opacity="0.2" cx="86.496" cy="422.448" rx="5.245" ry="4.994"/>
		
			<ellipse transform="matrix(0.6962 0.7179 -0.7179 0.6962 445.9189 2.0565)" fill="#EB4924" fill-opacity="0.2" cx="220.53" cy="527.812" rx="1.359" ry="1.293"/>
		
			<ellipse transform="matrix(0.6959 0.7181 -0.7181 0.6959 423.8898 21.4506)" fill="#EB4924" fill-opacity="0.2" cx="186.616" cy="511.256" rx="2.804" ry="2.67"/>
		
			<ellipse transform="matrix(0.696 0.7181 -0.7181 0.696 384.8425 50.1674)" fill="#EB4924" fill-opacity="0.2" cx="133.175" cy="479.569" rx="5.245" ry="4.994"/>
		
			<ellipse transform="matrix(0.696 0.7181 -0.7181 0.696 377.1349 72.0436)" fill="#EB4924" fill-opacity="0.2" cx="103.491" cy="481.383" rx="2.804" ry="2.67"/>
		
			<ellipse transform="matrix(0.6959 0.7182 -0.7182 0.6959 357.2125 47.1983)" fill="#EB4924" fill-opacity="0.2" cx="122.879" cy="445.362" rx="1.358" ry="1.294"/>
		
			<ellipse transform="matrix(0.6962 0.7179 -0.7179 0.6962 331.7173 83.1759)" fill="#EB4924" fill-opacity="0.2" cx="67.599" cy="433.46" rx="1.359" ry="1.293"/>
		
			<ellipse transform="matrix(0.6961 0.7179 -0.7179 0.6961 264.8562 97.5067)" fill="#EB4924" fill-opacity="0.2" cx="17.252" cy="361.605" rx="2.805" ry="2.67"/>
		
			<ellipse transform="matrix(0.696 0.7181 -0.7181 0.696 235.2706 101.7344)" fill="#EB4924" fill-opacity="0.2" cx="-2.504" cy="328.701" rx="5.245" ry="4.994"/>
		
			<ellipse transform="matrix(0.6959 0.7182 -0.7182 0.6959 258.7994 77.7856)" fill="#EB4924" fill-opacity="0.2" cx="37.557" cy="344.462" rx="1.359" ry="1.293"/>
		
			<ellipse transform="matrix(0.6961 0.718 -0.718 0.6961 246.5053 97.0668)" fill="#EB4924" fill-opacity="0.2" cx="8.604" cy="339.688" rx="1.359" ry="1.293"/>
		
			<ellipse transform="matrix(0.6961 0.7179 -0.7179 0.6961 217.5672 64.1902)" fill="#EB4924" fill-opacity="0.2" cx="32.962" cy="289.087" rx="2.804" ry="2.67"/>
		
			<ellipse transform="matrix(0.6959 0.7182 -0.7182 0.6959 325.209 135.3402)" fill="#EB4924" fill-opacity="0.2" cx="2.806" cy="451.651" rx="1.359" ry="1.294"/>
		
			<ellipse transform="matrix(0.6961 0.718 -0.718 0.6961 361.6369 142.5725)" fill="#EB4924" fill-opacity="0.2" cx="12.424" cy="498.42" rx="2.805" ry="2.67"/>
		
			<ellipse transform="matrix(0.6961 0.718 -0.718 0.6961 330.8928 143.205)" fill="#EB4924" fill-opacity="0.2" cx="-3.705" cy="462.448" rx="5.246" ry="4.994"/>
	</g>
	<g>
		
			<ellipse transform="matrix(-0.8764 0.4815 -0.4815 -0.8764 3840.7625 15.1224)" fill="#EB4924" fill-opacity="0.2" cx="1918.441" cy="500.348" rx="2.803" ry="2.67"/>
		
			<ellipse transform="matrix(-0.8761 0.4821 -0.4821 -0.8761 3756.7378 -108.763)" fill="#EB4924" fill-opacity="0.2" cx="1892.342" cy="428.264" rx="1.359" ry="1.293"/>
		
			<ellipse transform="matrix(-0.8765 0.4814 -0.4814 -0.8765 3363.9319 12.7143)" fill="#EB4924" fill-opacity="0.2" cx="1680.335" cy="437.875" rx="2.804" ry="2.668"/>
		<path fill="#EB4924" fill-opacity="0.2" d="M1736.892,527.289c-0.71-1.295-0.184-2.945,1.172-3.69
			c1.357-0.747,3.034-0.304,3.744,0.988c0.71,1.293,0.185,2.946-1.173,3.69C1739.277,529.023,1737.602,528.581,1736.892,527.289z"/>
		
			<ellipse transform="matrix(-0.8764 0.4815 -0.4815 -0.8764 3559.7532 133.3026)" fill="#EB4924" fill-opacity="0.2" cx="1762.773" cy="523.392" rx="1.359" ry="1.293"/>
		
			<ellipse transform="matrix(-0.8762 0.4819 -0.4819 -0.8762 3472.334 9.1243)" fill="#EB4924" fill-opacity="0.2" cx="1734.995" cy="450.538" rx="1.359" ry="1.295"/>
		
			<ellipse transform="matrix(-0.8765 0.4814 -0.4814 -0.8765 3612.666 2.0248)" fill="#EB4924" fill-opacity="0.2" cx="1806.073" cy="464.451" rx="10.015" ry="9.534"/>
		
			<ellipse transform="matrix(-0.8764 0.4815 -0.4815 -0.8764 3563.9529 22.2364)" fill="#EB4924" fill-opacity="0.2" cx="1779.124" cy="468.375" rx="2.804" ry="2.67"/>
		
			<ellipse transform="matrix(-0.8765 0.4814 -0.4814 -0.8765 3688.9658 111.7952)" fill="#EB4924" fill-opacity="0.2" cx="1830.143" cy="529.076" rx="5.246" ry="4.994"/>
		<path fill="#EB4924" fill-opacity="0.2" d="M1841.12,497.084c-0.71-1.292-0.188-2.944,1.173-3.689
			c1.354-0.747,3.033-0.304,3.742,0.988c0.709,1.291,0.184,2.945-1.174,3.69C1843.503,498.819,1841.829,498.377,1841.12,497.084z"/>
		
			<ellipse transform="matrix(-0.8765 0.4813 -0.4813 -0.8765 3701.6841 -52.5825)" fill="#EB4924" fill-opacity="0.2" cx="1857.586" cy="448.458" rx="1.36" ry="1.294"/>
		
			<ellipse transform="matrix(-0.8767 0.4811 -0.4811 -0.8767 3581.8616 -54.867)" fill="#EB4924" fill-opacity="0.2" cx="1797.964" cy="431.707" rx="1.358" ry="1.294"/>
		<path fill="#EB4924" fill-opacity="0.2" d="M1803.129,503.251c-0.346-0.626-0.092-1.426,0.567-1.789
			c0.656-0.36,1.471-0.146,1.813,0.481c0.346,0.624,0.09,1.427-0.567,1.788C1804.284,504.091,1803.473,503.875,1803.129,503.251z"/>
		
			<ellipse transform="matrix(-0.8765 0.4815 -0.4815 -0.8765 3764.7925 -72.1802)" fill="#EB4924" fill-opacity="0.2" cx="1891.657" cy="446.919" rx="2.805" ry="2.67"/>
		
			<ellipse transform="matrix(-0.8766 0.4812 -0.4812 -0.8766 3704.1938 -229.4608)" fill="#EB4924" fill-opacity="0.2" cx="1881.517" cy="360.201" rx="1.36" ry="1.294"/>
	</g>
	<ellipse fill="#EB4924" cx="8.275" cy="259.726" rx="2.999" ry="2.855"/>
	<ellipse fill="#EB4924" cx="51.073" cy="470.952" rx="10.709" ry="10.194"/>
	<ellipse fill="#EB4924" cx="78.348" cy="481.148" rx="2.998" ry="2.853"/>
	<ellipse fill="#EB4924" cx="61.782" cy="398" rx="5.608" ry="5.34"/>
	<ellipse fill="#EB4924" cx="32.031" cy="422.332" rx="2.998" ry="2.854"/>
	<ellipse fill="#EB4924" cx="234.449" cy="337.857" rx="2.999" ry="2.854"/>
	<ellipse fill="#EB4924" cx="220.262" cy="524.003" rx="2.998" ry="2.854"/>
	<ellipse fill="#EB4924" cx="197.365" cy="452.687" rx="2.998" ry="2.854"/>
	<ellipse fill="#EB4924" cx="170.098" cy="336.898" rx="1.992" ry="1.896"/>
	<ellipse fill="#EB4924" cx="194.83" cy="323.472" rx="5.608" ry="5.34"/>
	<ellipse fill="#EB4924" cx="75.351" cy="256.872" rx="2.998" ry="2.854"/>
	<ellipse fill="#EB4924" cx="129.456" cy="300.15" rx="1.453" ry="1.382"/>
	<ellipse fill="#EB4924" cx="199.313" cy="424.341" rx="1.453" ry="1.384"/>
	<ellipse fill="#EB4924" cx="41.818" cy="505.813" rx="1.453" ry="1.382"/>
	<ellipse fill="#EB4924" cx="174.104" cy="443.018" rx="1.453" ry="1.382"/>
	<ellipse fill="#EB4924" cx="175.557" cy="484.001" rx="1.453" ry="1.383"/>
	<ellipse fill="#EB4924" cx="72.352" cy="436.108" rx="1.453" ry="1.383"/>
	<ellipse fill="#EB4924" cx="265.677" cy="509.767" rx="5.609" ry="5.339"/>
	<ellipse fill="#EB4924" cx="433.385" cy="526.857" rx="1.453" ry="1.383"/>
	<ellipse fill="#EB4924" cx="344.266" cy="516.436" rx="5.609" ry="5.34"/>
	<ellipse fill="#EB4924" cx="310.344" cy="498.886" rx="1.453" ry="1.383"/>
	<ellipse fill="#EB4924" cx="41.818" cy="360.053" rx="1.992" ry="1.896"/>
	<ellipse fill="#EB4924" cx="153.381" cy="386.663" rx="2.998" ry="2.854"/>
	<ellipse fill="#EB4924" cx="1686.688" cy="405.25" rx="2.999" ry="2.854"/>
	<ellipse fill="#EB4924" cx="1737.71" cy="440.559" rx="2.998" ry="2.854"/>
	<ellipse fill="#EB4924" cx="1732.103" cy="391.013" rx="5.608" ry="5.341"/>
	<ellipse fill="#EB4924" cx="1899.81" cy="408.104" rx="1.453" ry="1.383"/>
	<ellipse fill="#EB4924" cx="1861.864" cy="421.822" rx="3" ry="2.854"/>
	<ellipse fill="#EB4924" cx="1810.691" cy="397.682" rx="5.607" ry="5.34"/>
	<ellipse fill="#EB4924" cx="1789.993" cy="421.822" rx="2.999" ry="2.854"/>
	<ellipse fill="#EB4924" cx="1776.769" cy="380.134" rx="1.454" ry="1.383"/>
	<ellipse fill="#EB4924" cx="1726.494" cy="413.715" rx="1.453" ry="1.384"/>
	<ellipse fill="#EB4924" cx="1913.477" cy="289.859" rx="1.453" ry="1.383"/>
	<ellipse fill="#EB4924" cx="1892.755" cy="233.504" rx="2.999" ry="2.855"/>
	<ellipse fill="#EB4924" cx="1869.836" cy="332.999" rx="2.998" ry="2.855"/>
	<ellipse fill="#EB4924" cx="1863.839" cy="287.959" rx="1.454" ry="1.384"/>
	<ellipse fill="#EB4924" cx="1695.127" cy="511.527" rx="2.998" ry="2.854"/>
	<ellipse fill="#EB4924" cx="1697.076" cy="483.182" rx="1.454" ry="1.383"/>
	<ellipse fill="#EB4924" cx="1671.866" cy="501.857" rx="1.454" ry="1.382"/>
	<ellipse fill="#EB4924" cx="1630.444" cy="445.502" rx="2.999" ry="2.855"/>
	<ellipse fill="#EB4924" cx="1601.529" cy="499.958" rx="1.453" ry="1.383"/>
	<ellipse fill="#EB4924" cx="1841.57" cy="469.397" rx="10.708" ry="10.194"/>
	<ellipse fill="#EB4924" cx="1868.846" cy="479.592" rx="2.998" ry="2.854"/>
	<ellipse fill="#EB4924" cx="1822.528" cy="420.776" rx="2.998" ry="2.854"/>
	<ellipse fill="#EB4924" cx="1785.064" cy="457.867" rx="1.453" ry="1.384"/>
	<ellipse fill="#EB4924" cx="1832.314" cy="504.258" rx="1.453" ry="1.382"/>
	<ellipse fill="#EB4924" cx="1862.85" cy="434.553" rx="1.453" ry="1.383"/>
	<ellipse fill="#EB4924" cx="1823.335" cy="265.814" rx="5.609" ry="5.34"/>
	<ellipse fill="#EB4924" cx="1901.925" cy="272.482" rx="5.609" ry="5.341"/>
	<ellipse fill="#EB4924" cx="1881.228" cy="296.623" rx="2.999" ry="2.854"/>
	<ellipse fill="#EB4924" cx="1868.002" cy="254.934" rx="1.453" ry="1.384"/>
	<path fill="#EB4924" d="M1819.182,288.516c0,0.764-0.649,1.384-1.455,1.384c-0.801,0-1.451-0.62-1.451-1.384
		c0-0.762,0.65-1.382,1.451-1.382C1818.532,287.134,1819.182,287.754,1819.182,288.516z"/>
	<ellipse fill="#EB4924" cx="1688.467" cy="362.129" rx="2.998" ry="2.854"/>
	<ellipse fill="#EB4924" cx="1616.597" cy="362.129" rx="2.998" ry="2.854"/>
	<ellipse fill="#EB4924" cx="1649.663" cy="386.006" rx="10.709" ry="10.195"/>
	<ellipse fill="#EB4924" cx="1695.449" cy="419.898" rx="2.999" ry="2.854"/>
	<ellipse fill="#EB4924" cx="1611.667" cy="398.175" rx="1.454" ry="1.383"/>
	<path fill="#EB4924" d="M1560.146,480.378c0,0.765-0.65,1.384-1.454,1.384c-0.8,0-1.453-0.619-1.453-1.384
		c0-0.763,0.653-1.382,1.453-1.382C1559.495,478.996,1560.146,479.615,1560.146,480.378z"/>
	<ellipse fill="#EB4924" cx="1689.453" cy="374.86" rx="1.453" ry="1.383"/>
	<ellipse fill="#EB4924" cx="1921.085" cy="483.787" rx="2.999" ry="2.854"/>
	<ellipse fill="#EB4924" cx="1915.088" cy="438.748" rx="1.454" ry="1.382"/>
	
		<ellipse transform="matrix(-0.2757 -0.9612 0.9612 -0.2757 1457.9668 2093.1787)" fill="#EB4924" cx="1517.601" cy="497.292" rx="2.999" ry="2.855"/>
	
		<ellipse transform="matrix(-0.2753 -0.9613 0.9613 -0.2753 1416.2511 2074.0093)" fill="#EB4924" cx="1489.814" cy="503.223" rx="1.454" ry="1.385"/>
	
		<ellipse transform="matrix(-0.2756 -0.9613 0.9613 -0.2756 1430.0891 2122.3154)" fill="#EB4924" cx="1514.709" cy="522.316" rx="1.453" ry="1.384"/>
	
		<ellipse transform="matrix(-0.2747 -0.9615 0.9615 -0.2747 1490.4448 2143.5681)" fill="#EB4924" cx="1553.709" cy="509.635" rx="1.452" ry="1.382"/>
	
		<ellipse transform="matrix(-0.2753 -0.9614 0.9614 -0.2753 1527.552 2179.2251)" fill="#EB4924" cx="1585.192" cy="513.832" rx="5.607" ry="5.338"/>
	
		<ellipse transform="matrix(-0.2753 -0.9613 0.9613 -0.2753 1445.0543 2057.791)" fill="#EB4924" cx="1498.101" cy="484.26" rx="2.999" ry="2.854"/>
	
		<ellipse transform="matrix(-0.2752 -0.9614 0.9614 -0.2752 1498.1112 2086.7729)" fill="#EB4924" cx="1535.663" cy="478.675" rx="5.608" ry="5.339"/>
	
		<ellipse transform="matrix(-0.2753 -0.9613 0.9613 -0.2753 1456.254 2092.5027)" fill="#EB4924" cx="1516.784" cy="497.395" rx="2.999" ry="2.854"/>
	
		<ellipse transform="matrix(-0.2754 -0.9613 0.9613 -0.2754 1415.2545 2073.3596)" fill="#EB4924" cx="1488.996" cy="503.325" rx="1.454" ry="1.384"/>
	
		<ellipse transform="matrix(-0.2755 -0.9613 0.9613 -0.2755 1428.7969 2121.6514)" fill="#EB4924" cx="1513.89" cy="522.419" rx="1.453" ry="1.383"/>
</g>
<g id="Layer_5" opacity="0.36">
	<circle fill="none" stroke="#EB4924" stroke-width="10" stroke-miterlimit="10" cx="239.505" cy="328.248" r="11.527"/>
	<path fill="none" stroke="#EB4924" stroke-width="10" stroke-miterlimit="10" d="M28.683,258.527
		c-1.492,11.744-12.22,20.055-23.964,18.563c-11.744-1.491-20.055-12.22-18.564-23.962c1.491-11.746,12.221-20.057,23.964-18.565
		C21.862,236.054,30.173,246.783,28.683,258.527z"/>
	<circle fill="none" stroke="#EB4924" stroke-width="10" stroke-miterlimit="10" cx="69.701" cy="464.199" r="27.932"/>
	<circle fill="none" stroke="#EB4924" stroke-width="10" stroke-miterlimit="10" cx="308.956" cy="531.123" r="21.435"/>
	<circle fill="none" stroke="#EB4924" stroke-width="10" stroke-miterlimit="10" cx="223.302" cy="452.67" r="11.527"/>
	
		<line fill="none" stroke="#EB4924" stroke-width="10" stroke-miterlimit="10" x1="229.623" y1="324.465" x2="28.011" y2="263.355"/>
	
		<line fill="none" stroke="#EB4924" stroke-width="10" stroke-miterlimit="10" x1="225.948" y1="441.41" x2="239.053" y2="341.084"/>
	<line fill="none" stroke="#EB4924" stroke-width="10" stroke-miterlimit="10" x1="292.62" y1="517.248" x2="232.5" y2="459.616"/>
	
		<line fill="none" stroke="#EB4924" stroke-width="10" stroke-miterlimit="10" x1="95.122" y1="459.759" x2="211.774" y2="455.323"/>
	<line fill="none" stroke="#EB4924" stroke-width="10" stroke-miterlimit="10" x1="13.297" y1="273.518" x2="58.106" y2="438.788"/>
	
		<line fill="none" stroke="#EB4924" stroke-width="10" stroke-miterlimit="10" x1="88.745" y1="484.633" x2="183.968" y2="594.398"/>
	
		<line fill="none" stroke="#EB4924" stroke-width="10" stroke-miterlimit="10" x1="-75.532" y1="497.675" x2="43.037" y2="472.511"/>
	<circle fill="none" stroke="#EB4924" stroke-width="10" stroke-miterlimit="10" cx="1675.613" cy="380.784" r="11.528"/>
	<circle fill="none" stroke="#EB4924" stroke-width="10" stroke-miterlimit="10" cx="1861.865" cy="493.147" r="27.932"/>
	<path fill="none" stroke="#EB4924" stroke-width="10" stroke-miterlimit="10" d="M1837.174,224.618
		c11.536-2.656,23.044,4.538,25.701,16.074c2.659,11.537-4.537,23.043-16.071,25.701c-11.536,2.659-23.044-4.537-25.704-16.073
		C1818.443,238.785,1825.638,227.278,1837.174,224.618z"/>
	<circle fill="none" stroke="#EB4924" stroke-width="10" stroke-miterlimit="10" cx="1797.967" cy="352.993" r="11.528"/>
	
		<line fill="none" stroke="#EB4924" stroke-width="10" stroke-miterlimit="10" x1="1675.478" y1="391.364" x2="1687.799" y2="601.672"/>
	
		<line fill="none" stroke="#EB4924" stroke-width="10" stroke-miterlimit="10" x1="1786.489" y1="354.401" x2="1687.813" y2="376.771"/>
	
		<line fill="none" stroke="#EB4924" stroke-width="10" stroke-miterlimit="10" x1="1834.615" y1="265.629" x2="1801.307" y2="341.962"/>
	
		<line fill="none" stroke="#EB4924" stroke-width="10" stroke-miterlimit="10" x1="1848.914" y1="470.827" x2="1804.441" y2="362.895"/>
	
		<line fill="none" stroke="#EB4924" stroke-width="10" stroke-miterlimit="10" x1="1702.422" y1="611.97" x2="1842.025" y2="512.81"/>
	
		<line fill="none" stroke="#EB4924" stroke-width="10" stroke-miterlimit="10" x1="1877.91" y1="478.565" x2="2023.072" y2="391.132"/>
	
		<line fill="none" stroke="#EB4924" stroke-width="10" stroke-miterlimit="10" x1="1943.464" y1="617.867" x2="1878.879" y2="515.298"/>
	
		<line fill="none" stroke="#EB4924" stroke-width="10" stroke-miterlimit="10" x1="1859.674" y1="253.823" x2="1952.074" y2="298.884"/>
</g>
<g id="Layer_4">
</g>
<g id="Layer_1">
</g>
</svg>
