<?xml version="1.0" encoding="utf-8"?>
<!-- Generator: Adobe Illustrator 16.0.0, SVG Export Plug-In . SVG Version: 6.00 Build 0)  -->
<!DOCTYPE svg PUBLIC "-//W3C//DTD SVG 1.1//EN" "http://www.w3.org/Graphics/SVG/1.1/DTD/svg11.dtd">
<svg version="1.1" xmlns="http://www.w3.org/2000/svg" xmlns:xlink="http://www.w3.org/1999/xlink" x="0px" y="0px" width="1920px"
	 height="510.231px" viewBox="0 0 1920 510.231" enable-background="new 0 0 1920 510.231" xml:space="preserve">
<g id="Layer_2">
	<g id="Layer_3">
		<g>
			
				<ellipse transform="matrix(-0.8061 -0.5918 0.5918 -0.8061 2937.8701 1111.4683)" fill="#EB4924" fill-opacity="0.2" cx="1651.028" cy="74.419" rx="2.885" ry="2.746"/>
			
				<ellipse transform="matrix(-0.8062 -0.5916 0.5916 -0.8062 2936.2788 997.8071)" fill="#EB4924" fill-opacity="0.2" cx="1631.554" cy="18.019" rx="2.883" ry="2.743"/>
			
				<ellipse transform="matrix(-0.8062 -0.5917 0.5917 -0.8062 2868.5591 1058.9211)" fill="#EB4924" fill-opacity="0.2" cx="1607.719" cy="59.622" rx="5.392" ry="5.133"/>
			
				<ellipse transform="matrix(-0.8064 -0.5914 0.5914 -0.8064 2795.1941 934.5848)" fill="#EB4924" fill-opacity="0.2" cx="1550.579" cy="9.749" rx="5.393" ry="5.135"/>
			
				<ellipse transform="matrix(-0.8061 -0.5917 0.5917 -0.8061 2852.6809 940.2158)" fill="#EB4924" fill-opacity="0.2" cx="1580.358" cy="2.807" rx="2.883" ry="2.744"/>
			
				<ellipse transform="matrix(-0.806 -0.5919 0.5919 -0.806 2804.6357 1004.4202)" fill="#EB4924" fill-opacity="0.2" cx="1566.899" cy="42.651" rx="1.398" ry="1.331"/>
			
				<ellipse transform="matrix(-0.8063 -0.5915 0.5915 -0.8063 2908.5054 1042.7933)" fill="#EB4924" fill-opacity="0.2" cx="1624.98" cy="45.211" rx="1.398" ry="1.33"/>
			
				<ellipse transform="matrix(-0.8064 -0.5914 0.5914 -0.8064 3139.2371 1153.1622)" fill="#EB4924" fill-opacity="0.2" cx="1758.389" cy="62.695" rx="2.882" ry="2.744"/>
			<path fill="#EB4924" fill-opacity="0.2" d="M1801.493,81.937c1.674-2.285,4.982-2.712,7.385-0.949
				c2.401,1.761,2.987,5.043,1.31,7.328c-1.676,2.287-4.984,2.712-7.385,0.949C1800.399,87.504,1799.814,84.222,1801.493,81.937z"/>
			
				<ellipse transform="matrix(-0.8063 -0.5915 0.5915 -0.8063 3128.2437 1215.9935)" fill="#EB4924" fill-opacity="0.2" cx="1763.219" cy="95.804" rx="10.297" ry="9.804"/>
			
				<ellipse transform="matrix(-0.8061 -0.5918 0.5918 -0.8061 3063.1279 1057.1688)" fill="#EB4924" fill-opacity="0.2" cx="1704.759" cy="26.755" rx="2.882" ry="2.745"/>
			<path fill="#EB4924" fill-opacity="0.2" d="M1686.048,107.684c0.897-1.222,2.667-1.449,3.95-0.506
				c1.282,0.941,1.598,2.695,0.7,3.919c-0.897,1.219-2.664,1.449-3.948,0.507S1685.152,108.907,1686.048,107.684z"/>
			
				<ellipse transform="matrix(-0.8066 -0.591 0.591 -0.8066 3060.6196 1287.2708)" fill="#EB4924" fill-opacity="0.2" cx="1740.871" cy="143.005" rx="1.916" ry="1.823"/>
			
				<ellipse transform="matrix(-0.8063 -0.5915 0.5915 -0.8063 3013.6592 1265.6022)" fill="#EB4924" fill-opacity="0.2" cx="1714.058" cy="139.347" rx="5.393" ry="5.136"/>
			
				<ellipse transform="matrix(-0.8065 -0.5912 0.5912 -0.8065 2941.1675 1223.1243)" fill="#EB4924" fill-opacity="0.2" cx="1670.74" cy="130.259" rx="1.397" ry="1.329"/>
			
				<ellipse transform="matrix(-0.8062 -0.5916 0.5916 -0.8062 2995.2068 1241.3403)" fill="#EB4924" fill-opacity="0.2" cx="1700.909" cy="130.119" rx="1.397" ry="1.329"/>
			
				<ellipse transform="matrix(-0.8059 -0.592 0.592 -0.8059 3054.0317 1196.2291)" fill="#EB4924" fill-opacity="0.2" cx="1723.095" cy="97.516" rx="1.397" ry="1.33"/>
			
				<ellipse transform="matrix(-0.8061 -0.5917 0.5917 -0.8061 2933.3677 1332.2406)" fill="#EB4924" fill-opacity="0.2" cx="1684.92" cy="185.602" rx="2.883" ry="2.746"/>
			
				<ellipse transform="matrix(-0.8062 -0.5916 0.5916 -0.8062 3038.8589 1026.5313)" fill="#EB4924" fill-opacity="0.2" cx="1687.532" cy="15.628" rx="1.397" ry="1.33"/>
			
				<ellipse transform="matrix(-0.8062 -0.5917 0.5917 -0.8062 3099.4563 1068.5464)" fill="#EB4924" fill-opacity="0.2" cx="1724.757" cy="26.579" rx="2.882" ry="2.745"/>
			
				<ellipse transform="matrix(-0.8062 -0.5917 0.5917 -0.8062 3100.7334 1030.1453)" fill="#EB4924" fill-opacity="0.2" cx="1719.088" cy="7.223" rx="1.916" ry="1.825"/>
			
				<ellipse transform="matrix(-0.8062 -0.5916 0.5916 -0.8062 3054.5366 1007.5806)" fill="#EB4924" fill-opacity="0.2" cx="1692.274" cy="3.565" rx="5.394" ry="5.135"/>
		</g>
		<g>
			
				<ellipse transform="matrix(-0.8765 0.4814 -0.4814 -0.8765 3490.4419 -814.8109)" fill="#EB4924" fill-opacity="0.2" cx="1849.743" cy="40.341" rx="2.804" ry="2.67"/>
			
				<ellipse transform="matrix(-0.8764 0.4816 -0.4816 -0.8764 3643.4561 -678.2399)" fill="#EB4924" fill-opacity="0.2" cx="1908.759" cy="128.403" rx="2.805" ry="2.67"/>
			
				<ellipse transform="matrix(-0.8764 0.4816 -0.4816 -0.8764 3675.9414 -638.5399)" fill="#EB4924" fill-opacity="0.2" cx="1919.924" cy="152.517" rx="1.359" ry="1.294"/>
			
				<ellipse transform="matrix(-0.8764 0.4815 -0.4815 -0.8764 3599.0132 -817.5495)" fill="#EB4924" fill-opacity="0.2" cx="1904.404" cy="53.003" rx="1.359" ry="1.295"/>
		</g>
		<g>
			
				<ellipse transform="matrix(-0.8766 0.4813 -0.4813 -0.8766 131.7961 514.264)" fill="#EB4924" fill-opacity="0.2" cx="-0.05" cy="274.033" rx="2.804" ry="2.671"/>
			
				<ellipse transform="matrix(-0.8764 0.4815 -0.4815 -0.8764 147.2289 311.3222)" fill="#EB4924" fill-opacity="0.2" cx="33.668" cy="174.552" rx="2.804" ry="2.671"/>
			<path fill="#EB4924" fill-opacity="0.2" d="M68.322,144.438c-1.327-2.415-0.346-5.509,2.193-6.903s5.675-0.564,7.001,1.853
				c1.329,2.418,0.345,5.506-2.193,6.903C72.784,147.687,69.65,146.855,68.322,144.438z"/>
			
				<ellipse transform="matrix(-0.8764 0.4815 -0.4815 -0.8764 210.2199 313.8094)" fill="#EB4924" fill-opacity="0.2" cx="64.845" cy="183.878" rx="10.017" ry="9.535"/>
			
				<ellipse transform="matrix(-0.8766 0.4813 -0.4813 -0.8766 209.4801 457.178)" fill="#EB4924" fill-opacity="0.2" cx="46.113" cy="255.452" rx="2.804" ry="2.669"/>
			
				<ellipse transform="matrix(-0.8765 0.4814 -0.4814 -0.8765 289.9129 371.5309)" fill="#EB4924" fill-opacity="0.2" cx="97.298" cy="222.955" rx="1.863" ry="1.773"/>
			
				<ellipse transform="matrix(-0.8764 0.4815 -0.4815 -0.8764 273.8907 419.9107)" fill="#EB4924" fill-opacity="0.2" cx="83.07" cy="245.096" rx="5.246" ry="4.996"/>
			
				<ellipse transform="matrix(-0.8764 0.4815 -0.4815 -0.8764 242.0974 497.0074)" fill="#EB4924" fill-opacity="0.2" cx="57.279" cy="279.566" rx="1.359" ry="1.295"/>
			
				<ellipse transform="matrix(-0.8766 0.4813 -0.4813 -0.8766 252.2094 441.1251)" fill="#EB4924" fill-opacity="0.2" cx="69.536" cy="252.905" rx="1.359" ry="1.292"/>
			
				<ellipse transform="matrix(-0.8764 0.4816 -0.4816 -0.8764 199.5538 388.7015)" fill="#EB4924" fill-opacity="0.2" cx="49.889" cy="219.962" rx="1.359" ry="1.294"/>
			
				<ellipse transform="matrix(-0.8765 0.4815 -0.4815 -0.8765 349.4895 489.8706)" fill="#EB4924" fill-opacity="0.2" cx="111.9" cy="289.771" rx="2.804" ry="2.669"/>
		</g>
		<g>
			
				<ellipse transform="matrix(-0.8765 0.4814 -0.4814 -0.8765 923.8824 -199.2906)" fill="#EB4924" fill-opacity="0.2" cx="487.504" cy="18.862" rx="5.245" ry="4.993"/>
			
				<ellipse transform="matrix(-0.8763 0.4817 -0.4817 -0.8763 715.5204 56.8603)" fill="#EB4924" fill-opacity="0.2" cx="350.461" cy="120.28" rx="1.359" ry="1.295"/>
			
				<ellipse transform="matrix(-0.8764 0.4815 -0.4815 -0.8764 748.6714 -8.2276)" fill="#EB4924" fill-opacity="0.2" cx="375.391" cy="91.946" rx="2.805" ry="2.669"/>
			<path fill="#EB4924" fill-opacity="0.2" d="M415.479,51.307c-1.327-2.414-0.347-5.507,2.193-6.901
				c2.54-1.394,5.674-0.565,7.002,1.853c1.329,2.416,0.346,5.508-2.193,6.901C419.941,54.555,416.808,53.725,415.479,51.307z"/>
			
				<ellipse transform="matrix(-0.8765 0.4814 -0.4814 -0.8765 809.1835 -168.2522)" fill="#EB4924" fill-opacity="0.2" cx="426.175" cy="19.674" rx="2.804" ry="2.67"/>
			
				<ellipse transform="matrix(-0.8766 0.4812 -0.4812 -0.8766 878.3815 -129.4535)" fill="#EB4924" fill-opacity="0.2" cx="455.789" cy="47.895" rx="1.36" ry="1.295"/>
			<path fill="#EB4924" fill-opacity="0.2" d="M300.356,118.544c-0.71-1.292-0.186-2.944,1.171-3.689
				c1.358-0.746,3.035-0.304,3.745,0.987c0.709,1.294,0.183,2.946-1.173,3.695C302.741,120.279,301.066,119.837,300.356,118.544z"/>
			
				<ellipse transform="matrix(-0.8765 0.4814 -0.4814 -0.8765 531.3132 -123.5741)" fill="#EB4924" fill-opacity="0.2" cx="281.507" cy="6.363" rx="2.805" ry="2.669"/>
			
				<ellipse transform="matrix(-0.8764 0.4815 -0.4815 -0.8764 710.8635 -4.4081)" fill="#EB4924" fill-opacity="0.2" cx="355.997" cy="89.003" rx="1.864" ry="1.774"/>
			
				<ellipse transform="matrix(-0.8764 0.4815 -0.4815 -0.8764 694.8232 43.9785)" fill="#EB4924" fill-opacity="0.2" cx="341.769" cy="111.145" rx="5.245" ry="4.993"/>
			
				<ellipse transform="matrix(-0.8765 0.4814 -0.4814 -0.8765 563.8751 -83.7012)" fill="#EB4924" fill-opacity="0.2" cx="292.674" cy="30.477" rx="1.358" ry="1.295"/>
			
				<ellipse transform="matrix(-0.8764 0.4816 -0.4816 -0.8764 574.0076 -139.6917)" fill="#EB4924" fill-opacity="0.2" cx="304.93" cy="3.816" rx="1.359" ry="1.294"/>
			
				<ellipse transform="matrix(-0.8764 0.4816 -0.4816 -0.8764 671.2565 -90.9081)" fill="#EB4924" fill-opacity="0.2" cx="347.293" cy="40.681" rx="2.805" ry="2.67"/>
			
				<ellipse transform="matrix(-0.8765 0.4814 -0.4814 -0.8765 703.1922 -161.4034)" fill="#EB4924" fill-opacity="0.2" cx="372.3" cy="9.5" rx="5.246" ry="4.993"/>
			
				<ellipse transform="matrix(-0.8764 0.4816 -0.4816 -0.8764 1183.8359 -298.88)" fill="#EB4924" fill-opacity="0.2" cx="630.273" cy="2.481" rx="2.804" ry="2.671"/>
		</g>
		<g opacity="0.3">
			<circle fill="none" stroke="#EB4924" stroke-width="10" stroke-miterlimit="10" cx="32.096" cy="78.735" r="16.991"/>
			<circle fill="none" stroke="#EB4924" stroke-width="10" stroke-miterlimit="10" cx="235.584" cy="106.333" r="28.894"/>
			<circle fill="none" stroke="#EB4924" stroke-width="10" stroke-miterlimit="10" cx="154.277" cy="11.897" r="12.101"/>
			<circle fill="none" stroke="#EB4924" stroke-width="10" stroke-miterlimit="10" cx="372.199" cy="53.868" r="16.991"/>
			<circle fill="none" stroke="#EB4924" stroke-width="10" stroke-miterlimit="10" cx="8.483" cy="227.499" r="12.101"/>
			
				<line fill="none" stroke="#EB4924" stroke-width="10" stroke-miterlimit="10" x1="49.371" y1="69.347" x2="146.039" y2="17.611"/>
			<line fill="none" stroke="#EB4924" stroke-width="10" stroke-miterlimit="10" x1="27.173" y1="94.996" x2="8.623" y2="214.897"/>
			<line fill="none" stroke="#EB4924" stroke-width="10" stroke-miterlimit="10" x1="210.521" y1="120.7" x2="18.62" y2="220.895"/>
			
				<line fill="none" stroke="#EB4924" stroke-width="10" stroke-miterlimit="10" x1="206.888" y1="101.396" x2="49.037" y2="80.041"/>
			
				<line fill="none" stroke="#EB4924" stroke-width="10" stroke-miterlimit="10" x1="356.557" y1="60.498" x2="261.202" y2="92.982"/>
			
				<line fill="none" stroke="#EB4924" stroke-width="10" stroke-miterlimit="10" x1="161.931" y1="21.269" x2="214.728" y2="83.193"/>
			
				<line fill="none" stroke="#EB4924" stroke-width="10" stroke-miterlimit="10" x1="166.349" y1="12.768" x2="355.278" y2="52.305"/>
			
				<line fill="none" stroke="#EB4924" stroke-width="10" stroke-miterlimit="10" x1="15.86" y1="-172.631" x2="144.811" y2="1.404"/>
			
				<line fill="none" stroke="#EB4924" stroke-width="10" stroke-miterlimit="10" x1="-15.3" y1="-194.975" x2="28.322" y2="60.552"/>
			
				<line fill="none" stroke="#EB4924" stroke-width="10" stroke-miterlimit="10" x1="-160.544" y1="233.932" x2="17.601" y2="88.558"/>
			
				<line fill="none" stroke="#EB4924" stroke-width="10" stroke-miterlimit="10" x1="326.352" y1="-76.27" x2="366.441" y2="37.883"/>
			
				<line fill="none" stroke="#EB4924" stroke-width="10" stroke-miterlimit="10" x1="606.915" y1="-82.104" x2="385.858" y2="43.761"/>
			<circle fill="none" stroke="#EB4924" stroke-width="10" stroke-miterlimit="10" cx="1597.479" cy="78.196" r="16.991"/>
			<circle fill="none" stroke="#EB4924" stroke-width="10" stroke-miterlimit="10" cx="1729.889" cy="54.083" r="28.895"/>
			<circle fill="none" stroke="#EB4924" stroke-width="10" stroke-miterlimit="10" cx="1841.798" cy="201.041" r="12.101"/>
			<circle fill="none" stroke="#EB4924" stroke-width="10" stroke-miterlimit="10" cx="1870.341" cy="95.189" r="16.991"/>
			
				<line fill="none" stroke="#EB4924" stroke-width="10" stroke-miterlimit="10" x1="1614.457" y1="77.56" x2="1700.992" y2="61.206"/>
			
				<line fill="none" stroke="#EB4924" stroke-width="10" stroke-miterlimit="10" x1="1710.062" y1="32.761" x2="1597.479" y2="-79.928"/>
			
				<line fill="none" stroke="#EB4924" stroke-width="10" stroke-miterlimit="10" x1="1853.881" y1="90.979" x2="1758.355" y2="58.998"/>
			
				<line fill="none" stroke="#EB4924" stroke-width="10" stroke-miterlimit="10" x1="1722.891" y1="-58.221" x2="1727.333" y2="23.036"/>
			
				<line fill="none" stroke="#EB4924" stroke-width="10" stroke-miterlimit="10" x1="1594.307" y1="-155.894" x2="1591.339" y2="60.688"/>
			
				<line fill="none" stroke="#EB4924" stroke-width="10" stroke-miterlimit="10" x1="1866.236" y1="110.222" x2="1844.805" y2="189.32"/>
			
				<line fill="none" stroke="#EB4924" stroke-width="10" stroke-miterlimit="10" x1="1912.782" y1="-36.098" x2="1875.455" y2="78.986"/>
			
				<line fill="none" stroke="#EB4924" stroke-width="10" stroke-miterlimit="10" x1="2139.434" y1="129.367" x2="1887.332" y2="95.433"/>
			
				<line fill="none" stroke="#EB4924" stroke-width="10" stroke-miterlimit="10" x1="1849.646" y1="209.238" x2="1975.92" y2="355.227"/>
		</g>
		<ellipse fill="#EB4924" cx="210.521" cy="154.945" rx="5.609" ry="5.341"/>
		<ellipse fill="#EB4924" cx="57.977" cy="111.671" rx="10.709" ry="10.195"/>
		<ellipse fill="#EB4924" cx="419.624" cy="79.83" rx="6.758" ry="6.433"/>
		<ellipse fill="#EB4924" cx="119.387" cy="12.768" rx="4.816" ry="4.585"/>
		<ellipse fill="#EB4924" cx="262.927" cy="79.364" rx="2.998" ry="2.854"/>
		<ellipse fill="#EB4924" cx="291.41" cy="141.459" rx="2.998" ry="2.855"/>
		<ellipse fill="#EB4924" cx="261.202" cy="220.895" rx="2.998" ry="2.855"/>
		<ellipse fill="#EB4924" cx="52.876" cy="220.895" rx="5.608" ry="5.34"/>
		<ellipse fill="#EB4924" cx="35.094" cy="138.605" rx="2.998" ry="2.854"/>
		<ellipse fill="#EB4924" cx="15.101" cy="43.761" rx="2.999" ry="2.855"/>
		<ellipse fill="#EB4924" cx="382.86" cy="24" rx="2.998" ry="2.856"/>
		<ellipse fill="#EB4924" cx="24.212" cy="1.404" rx="12.11" ry="11.528"/>
		<ellipse fill="#EB4924" cx="356.558" cy="70.862" rx="4.554" ry="4.337"/>
		<ellipse fill="#EB4924" cx="80.335" cy="257" rx="2.999" ry="2.854"/>
		<ellipse fill="#EB4924" cx="9.394" cy="246.678" rx="5.608" ry="5.34"/>
		<ellipse fill="#EB4924" cx="206.682" cy="90.72" rx="2.999" ry="2.854"/>
		<ellipse fill="#EB4924" cx="257.955" cy="117.011" rx="5.608" ry="5.339"/>
		<ellipse fill="#EB4924" cx="169.379" cy="17.353" rx="2.999" ry="2.854"/>
		<ellipse fill="#EB4924" cx="86.333" cy="60.498" rx="2.999" ry="2.855"/>
		<ellipse fill="#EB4924" cx="1696.758" cy="84.873" rx="2.998" ry="2.854"/>
		<ellipse fill="#EB4924" cx="1747.78" cy="120.182" rx="2.998" ry="2.854"/>
		<ellipse fill="#EB4924" cx="1742.171" cy="70.638" rx="5.608" ry="5.34"/>
		<ellipse fill="#EB4924" cx="1884.857" cy="59.858" rx="2.999" ry="2.854"/>
		<ellipse fill="#EB4924" cx="1820.761" cy="77.306" rx="5.608" ry="5.341"/>
		<ellipse fill="#EB4924" cx="1800.063" cy="101.445" rx="2.998" ry="2.854"/>
		<ellipse fill="#EB4924" cx="1786.839" cy="59.756" rx="1.453" ry="1.383"/>
		<ellipse fill="#EB4924" cx="1736.565" cy="93.339" rx="1.453" ry="1.384"/>
		<ellipse fill="#EB4924" cx="1613.951" cy="160.744" rx="2.999" ry="2.853"/>
		<ellipse fill="#EB4924" cx="1560.367" cy="171.125" rx="5.609" ry="5.34"/>
		<ellipse fill="#EB4924" cx="1589.535" cy="135.956" rx="10.709" ry="10.193"/>
		<ellipse fill="#EB4924" cx="1681.026" cy="157.89" rx="2.999" ry="2.854"/>
		<ellipse fill="#EB4924" cx="1735.132" cy="201.169" rx="1.454" ry="1.382"/>
		<ellipse fill="#EB4924" cx="1901.517" cy="72.6" rx="1.993" ry="1.896"/>
		<ellipse fill="#EB4924" cx="1905.521" cy="178.719" rx="1.453" ry="1.382"/>
		<ellipse fill="#EB4924" cx="1894.052" cy="261.289" rx="1.453" ry="1.384"/>
		<ellipse fill="#EB4924" cx="1884.799" cy="122.363" rx="2.999" ry="2.854"/>
		<ellipse fill="#EB4924" cx="1834.604" cy="211.663" rx="10.708" ry="10.195"/>
		<ellipse fill="#EB4924" cx="1861.879" cy="221.858" rx="2.999" ry="2.854"/>
		<ellipse fill="#EB4924" cx="1845.314" cy="138.712" rx="5.608" ry="5.34"/>
		<path fill="#EB4924" d="M1818.559,163.041c0,1.577-1.34,2.856-2.996,2.856s-2.999-1.279-2.999-2.856
			c0-1.574,1.343-2.853,2.999-2.853S1818.559,161.467,1818.559,163.041z"/>
		<ellipse fill="#EB4924" cx="1778.098" cy="200.135" rx="1.454" ry="1.383"/>
		<ellipse fill="#EB4924" cx="1825.349" cy="246.522" rx="1.453" ry="1.384"/>
		<ellipse fill="#EB4924" cx="1855.883" cy="176.818" rx="1.453" ry="1.384"/>
		<ellipse fill="#EB4924" cx="245.156" cy="93.709" rx="2.999" ry="2.854"/>
		<ellipse fill="#EB4924" cx="247.104" cy="65.362" rx="1.453" ry="1.384"/>
		<ellipse fill="#EB4924" cx="221.895" cy="84.039" rx="1.453" ry="1.383"/>
		<ellipse fill="#EB4924" cx="201.172" cy="27.683" rx="2.999" ry="2.855"/>
		<ellipse fill="#EB4924" cx="178.252" cy="127.179" rx="2.998" ry="2.854"/>
		<ellipse fill="#EB4924" cx="172.256" cy="82.139" rx="1.453" ry="1.384"/>
		
			<ellipse transform="matrix(0.6545 -0.756 0.756 0.6545 -35.5678 71.1454)" fill="#EB4924" cx="60.063" cy="74.491" rx="2.999" ry="2.854"/>
		
			<ellipse transform="matrix(0.6545 -0.756 0.756 0.6545 -27.3891 48.9869)" fill="#EB4924" cx="39.909" cy="54.464" rx="1.453" ry="1.383"/>
		
			<ellipse transform="matrix(0.6545 -0.7561 0.7561 0.6545 -51.8664 58.0021)" fill="#EB4924" cx="37.525" cy="85.746" rx="1.453" ry="1.384"/>
		
			<ellipse transform="matrix(0.6546 -0.756 0.756 0.6546 -96.7532 82.1922)" fill="#EB4924" cx="41.57" cy="146.978" rx="2.998" ry="2.855"/>
		
			<ellipse transform="matrix(0.6547 -0.7559 0.7559 0.6547 -90.9971 44.8532)" fill="#EB4924" cx="3.596" cy="122.029" rx="1.453" ry="1.383"/>
		<ellipse fill="#EB4924" cx="510.106" cy="21.904" rx="2.998" ry="2.854"/>
		<ellipse fill="#EB4924" cx="486.844" cy="12.235" rx="1.453" ry="1.382"/>
		<ellipse fill="#EB4924" cx="443.202" cy="55.375" rx="2.998" ry="2.854"/>
		<ellipse fill="#EB4924" cx="437.206" cy="10.335" rx="1.453" ry="1.384"/>
		
			<ellipse transform="matrix(0.3165 0.9486 -0.9486 0.3165 1070.6885 -1405.22)" fill="#EB4924" cx="1510.491" cy="40.39" rx="1.453" ry="1.383"/>
		
			<ellipse transform="matrix(0.3164 0.9486 -0.9486 0.3164 1023.7905 -1403.1979)" fill="#EB4924" cx="1485.47" cy="8.733" rx="2.999" ry="2.853"/>
		
			<ellipse transform="matrix(0.3164 0.9486 -0.9486 0.3164 1109.4426 -1359.6879)" fill="#EB4924" cx="1498.108" cy="89.916" rx="2.999" ry="2.852"/>
		
			<ellipse transform="matrix(0.3166 0.9486 -0.9486 0.3166 1037.6199 -1383.0712)" fill="#EB4924" cx="1478.656" cy="28.569" rx="1.993" ry="1.896"/>
		
			<ellipse transform="matrix(0.3165 0.9486 -0.9486 0.3165 1070.0953 -1389.5054)" fill="#EB4924" cx="1499.217" cy="47.78" rx="5.609" ry="5.34"/>
		
			<ellipse transform="matrix(0.3163 0.9487 -0.9487 0.3163 1002.0228 -1333.4713)" fill="#EB4924" cx="1426.158" cy="28.456" rx="2.998" ry="2.853"/>
		
			<ellipse transform="matrix(0.3164 0.9486 -0.9486 0.3164 952.0977 -1328.927)" fill="#EB4924" cx="1398.157" cy="-3.828" rx="5.609" ry="5.338"/>
		<ellipse fill="#EB4924" cx="1643.932" cy="78.522" rx="2.999" ry="2.855"/>
		<ellipse fill="#EB4924" cx="1579.238" cy="82.631" rx="1.992" ry="1.896"/>
		<ellipse fill="#EB4924" cx="1603.969" cy="69.204" rx="5.609" ry="5.34"/>
		<ellipse fill="#EB4924" cx="1538.595" cy="45.882" rx="1.453" ry="1.383"/>
		<ellipse fill="#EB4924" cx="1645.881" cy="50.176" rx="1.453" ry="1.384"/>
		<ellipse fill="#EB4924" cx="1620.67" cy="68.853" rx="1.453" ry="1.383"/>
		<ellipse fill="#EB4924" cx="1622.125" cy="109.838" rx="1.452" ry="1.383"/>
		<ellipse fill="#EB4924" cx="1599.949" cy="12.499" rx="2.999" ry="2.854"/>
	</g>
</g>
<g id="Layer_6">
	<g>
		
			<ellipse transform="matrix(0.6958 0.7182 -0.7182 0.6958 38.5706 -33.3789)" fill="#EB4924" fill-opacity="0.2" cx="58.693" cy="28.847" rx="2.804" ry="2.669"/>
	</g>
</g>
<g id="Layer_5" opacity="0.36">
</g>
<g id="Layer_4">
</g>
<g id="Layer_1">
</g>
</svg>
